<svg width="19" height="18" viewBox="0 0 19 18" fill="none" xmlns="http://www.w3.org/2000/svg">
<g clip-path="url(#clip0_4_2479)">
<path d="M10.5373 3.06151C10.4002 3.00453 10.2493 2.98958 10.1037 3.01856C9.95819 3.04754 9.82452 3.11914 9.71975 3.22426L6.5 6.75376H4.25C3.8375 6.75376 3.5 7.09126 3.5 7.50376V12.0038C3.5 12.4163 3.8375 12.7538 4.25 12.7538H6.5L9.71975 16.284C9.82491 16.3881 9.95849 16.4589 10.1037 16.4874C10.2489 16.5159 10.3993 16.5009 10.5361 16.4443C10.6728 16.3877 10.7898 16.2919 10.8723 16.1691C10.9548 16.0462 10.9993 15.9018 11 15.7538V3.75376C11.0003 3.60547 10.9564 3.46045 10.874 3.33718C10.7916 3.2139 10.6744 3.11793 10.5373 3.06151Z" fill="white"/>
<path d="M12.5 7.50375V9.00375C12.9132 9.00375 13.25 9.3405 13.25 9.75375C13.25 10.167 12.9132 10.5038 12.5 10.5038V12.0038C13.7405 12.0038 14.75 10.9943 14.75 9.75375C14.75 8.5125 13.7405 7.50375 12.5 7.50375Z" fill="white"/>
</g>
<defs>
<clipPath id="clip0_4_2479">
<rect width="18" height="18" fill="white" transform="translate(0.5)"/>
</clipPath>
</defs>
</svg>
